<?xml version="1.0" encoding="utf-8"?>
<!-- Generator: Adobe Illustrator 17.0.0, SVG Export Plug-In . SVG Version: 6.00 Build 0)  -->
<!DOCTYPE svg PUBLIC "-//W3C//DTD SVG 1.1//EN" "http://www.w3.org/Graphics/SVG/1.1/DTD/svg11.dtd">
<svg version="1.1" id="Layer_1" xmlns="http://www.w3.org/2000/svg" xmlns:xlink="http://www.w3.org/1999/xlink" x="0px" y="0px"
	 width="141.732px" height="141.732px" viewBox="0 0 141.732 141.732" enable-background="new 0 0 141.732 141.732"
	 xml:space="preserve">
<g>
	<path d="M65.587,101.254c5.686,0,10.988,0,16.716,0c0.131-2.203,0.256-4.297,0.391-6.563c0.708-0.143,1.301-0.338,1.904-0.372
		c14.053-0.797,18.926-5.479,20.289-19.434c0.252-2.577,0.686-5.136,1.179-8.755c2.424,10.96,4.216,20.911,6.88,30.622
		c3.021,11.013-5.747,21.314-15.368,22.658c-1.003,0.14-2.03,0.149-3.046,0.15c-13.746,0.008-27.492,0.043-41.238-0.009
		c-10.05-0.038-17.891-6.783-19.053-16.713c-0.296-2.533,0.573-5.242,1.113-7.828c1.936-9.273,3.96-18.527,6.389-27.863
		c0.539,3.668,1.082,7.335,1.618,11.004c1.579,10.797,7.29,15.885,18.114,16.123c1.132,0.025,2.265,0.003,3.538,0.003
		C65.207,96.645,65.38,98.74,65.587,101.254z"/>
	<path d="M104.061,61.467c-0.975,6.89-1.493,13.488-2.923,19.881c-1.673,7.477-7.591,10.663-17.124,9.941
		c-0.258-1.08-0.535-2.239-0.868-3.633c-6.094,0-12.143,0-18.427,0c-0.27,1.183-0.537,2.353-0.787,3.45
		C53.148,92.55,47.22,87.986,45.96,77.593c-0.638-5.264-1.511-10.5-2.332-16.126C63.842,61.467,83.676,61.467,104.061,61.467z"/>
	<path d="M46.656,57.293c-0.655-0.046-1.729-0.12-2.761-0.192c-1.269-16.363,10.337-28.922,27.104-29.636
		c18.903-0.805,32.593,11.243,33.053,29.236c-2.939,1.755-3.905,0.188-4.367-2.54c-1.453-8.588-5.339-15.556-13.355-19.706
		c-12.189-6.311-29.132-2.561-34.83,8.198C49.234,46.929,48.371,51.947,46.656,57.293z"/>
	<path d="M68.308,97.94c0-2.306,0-4.514,0-6.974c3.696,0,7.285,0,11.169,0c0,2.247,0,4.451,0,6.974
		C75.87,97.94,72.191,97.94,68.308,97.94z"/>
</g>
<g display="none">
	<path display="inline" fill="#FFFFFF" stroke="#000000" stroke-width="0.75" stroke-miterlimit="10" d="M65.587,101.254
		c5.686,0,10.988,0,16.716,0c0.131-2.203,0.256-4.297,0.391-6.563c0.708-0.143,1.301-0.338,1.904-0.372
		c14.053-0.797,18.926-5.479,20.289-19.434c0.252-2.577,0.686-5.136,1.179-8.755c2.424,10.96,4.216,20.911,6.88,30.622
		c3.021,11.013-5.747,21.314-15.368,22.658c-1.003,0.14-2.03,0.149-3.046,0.15c-13.746,0.008-27.492,0.043-41.238-0.009
		c-10.05-0.038-17.891-6.783-19.053-16.713c-0.296-2.533,0.573-5.242,1.113-7.828c1.936-9.273,3.96-18.527,6.389-27.863
		c0.539,3.668,1.082,7.335,1.618,11.004c1.579,10.797,7.29,15.885,18.114,16.123c1.132,0.025,2.265,0.003,3.538,0.003
		C65.207,96.645,65.38,98.74,65.587,101.254z"/>
	<path display="inline" fill="#FFFFFF" stroke="#000000" stroke-width="0.75" stroke-miterlimit="10" d="M104.061,61.467
		c-0.975,6.89-1.493,13.488-2.923,19.881c-1.673,7.477-7.591,10.663-17.124,9.941c-0.258-1.08-0.535-2.239-0.868-3.633
		c-6.094,0-12.143,0-18.427,0c-0.27,1.183-0.537,2.353-0.787,3.45C53.148,92.55,47.22,87.986,45.96,77.593
		c-0.638-5.264-1.511-10.5-2.332-16.126C63.842,61.467,83.676,61.467,104.061,61.467z"/>
	<path display="inline" fill="#FFFFFF" stroke="#000000" stroke-width="0.75" stroke-miterlimit="10" d="M46.656,57.293
		c-0.655-0.046-1.729-0.12-2.761-0.192c-1.269-16.363,10.337-28.922,27.104-29.636c18.903-0.805,32.593,11.243,33.053,29.236
		c-2.939,1.755-3.905,0.188-4.367-2.54c-1.453-8.588-5.339-15.556-13.355-19.706c-12.189-6.311-29.132-2.561-34.83,8.198
		C49.234,46.929,48.371,51.947,46.656,57.293z"/>
	<path display="inline" fill="#FFFFFF" stroke="#000000" stroke-width="0.75" stroke-miterlimit="10" d="M68.308,97.94
		c0-2.306,0-4.514,0-6.974c3.696,0,7.285,0,11.169,0c0,2.247,0,4.451,0,6.974C75.87,97.94,72.191,97.94,68.308,97.94z"/>
</g>
</svg>
