<?xml version="1.0" encoding="utf-8"?>
<!-- Generator: Adobe Illustrator 17.0.0, SVG Export Plug-In . SVG Version: 6.00 Build 0)  -->
<!DOCTYPE svg PUBLIC "-//W3C//DTD SVG 1.1//EN" "http://www.w3.org/Graphics/SVG/1.1/DTD/svg11.dtd">
<svg version="1.1" id="Layer_1" xmlns="http://www.w3.org/2000/svg" xmlns:xlink="http://www.w3.org/1999/xlink" x="0px" y="0px"
	 width="141.732px" height="141.732px" viewBox="0 0 141.732 141.732" enable-background="new 0 0 141.732 141.732"
	 xml:space="preserve">
<path d="M19.706,118.942c2.775,1.451,5.801,2.154,8.843,2.358c5.956,0.398,11.947,0.8,17.9,0.575
	c7.227-0.273,14.473-0.895,21.631-1.919c6.624-0.948,11.277-5.121,14.819-10.693c2.288-3.599,3.335-7.614,4.538-11.608
	c1.634-5.426,3.595-10.722,7.596-14.925c1.813-1.905,3.973-3.237,6.828-2.451c1.777,0.489,3.087,2.081,3.48,3.866
	c1.081,4.913,1.563,9.873,1.776,14.863c0.258,6.023,0.324,12.054,0.476,18.082c0.006,0.226,0.046,0.451,0.079,0.761
	c1.424-0.077,2.804-0.152,3.923-0.213c-0.544-8.116-1.118-16.209-1.617-24.307c-0.276-4.487-0.135-8.98,0.993-13.35
	c0.97-3.759,2.857-7.145,4.961-10.381c1.94-2.984,4.061-5.849,6.019-8.822c1.402-2.128,1.457-4.598,1.287-7.017
	c-0.119-1.694-1.266-2.076-2.887-1.097c-2.538,1.533-5.056,3.096-7.578,4.656c-2.638,1.632-5.271,3.269-7.901,4.914
	c-0.672,0.42-1.144,0.333-1.652-0.331c-1.965-2.568-3.519-5.344-4.536-8.419c-0.553-1.672-0.316-3.284,0.613-4.698
	c2.489-3.785,5.065-7.513,7.625-11.251c0.514-0.751,1.125-1.437,1.664-2.172c0.864-1.177,0.514-2.25-0.478-3.087
	c-3.297-2.781-6.668-5.474-9.95-8.271c-1.376-1.172-2.329-0.389-3.217,0.526c-3.146,3.24-6.25,6.521-9.353,9.802
	c-3.607,3.814-7.038,7.812-10.838,11.422c-4.359,4.141-9.574,7.051-15.249,9.068c-2.138,0.76-4.326,1.381-6.497,2.049
	c-1.893,0.582-2.342,1.18-2.172,3.153c0.25,2.886,0.585,5.764,0.794,8.653c0.084,1.156-0.099,2.329-0.114,3.495
	c-0.026,1.988,0.699,2.784,2.699,2.634c1.949-0.146,3.909-0.409,5.812-0.846c5.494-1.262,10.946-2.71,16.45-3.928
	c1.988-0.44,4.074-0.448,6.118-0.625c1.724-0.149,2.901,0.655,3.765,2.119c0.798,1.352,1.763,2.606,2.551,3.963
	c0.203,0.351,0.204,1.061-0.022,1.383c-3.357,4.796-6.072,9.93-8.147,15.396c-1.38,3.634-2.577,7.339-4.002,10.955
	c-1.449,3.68-3.713,6.839-6.704,9.449c-1.151,1.004-2.365,0.922-3.78-0.537c-3.317-3.42-6.54-6.932-9.798-10.409
	c-1.55-1.654-3.05-3.36-4.661-4.952c-1.008-0.996-2.183-0.561-3.207,0.071c-3.851,2.377-7.673,4.801-11.517,7.189
	c-1.039,0.646-1.428,1.496-1.168,2.708c0.447,2.088,0.835,4.189,1.306,6.579c-1.547,0.084-2.851,0.089-4.14,0.237
	c-4.219,0.482-8.444,0.944-12.637,1.599c-0.713,0.111-1.499,1.033-1.863,1.772C18.103,117.877,18.847,118.493,19.706,118.942z
	 M88.53,51.797c0.133,2.454-1.748,4.551-4.202,4.684c-2.454,0.133-4.551-1.748-4.684-4.202c-0.133-2.454,1.748-4.551,4.202-4.684
	C86.299,47.462,88.396,49.343,88.53,51.797z"/>
<path display="none" fill="#FFFFFF" stroke="#000000" stroke-width="0.75" stroke-miterlimit="10" d="M19.706,118.942
	c2.775,1.451,5.801,2.154,8.843,2.358c5.956,0.398,11.947,0.8,17.9,0.575c7.227-0.273,14.473-0.895,21.631-1.919
	c6.624-0.948,11.277-5.121,14.819-10.693c2.288-3.599,3.335-7.614,4.538-11.608c1.634-5.426,3.595-10.722,7.596-14.925
	c1.813-1.905,3.973-3.237,6.828-2.451c1.777,0.489,3.087,2.081,3.48,3.866c1.081,4.913,1.563,9.873,1.776,14.863
	c0.258,6.023,0.324,12.054,0.476,18.082c0.006,0.226,0.046,0.451,0.079,0.761c1.424-0.077,2.804-0.152,3.923-0.213
	c-0.544-8.116-1.118-16.209-1.617-24.307c-0.276-4.487-0.135-8.98,0.993-13.35c0.97-3.759,2.857-7.145,4.961-10.381
	c1.94-2.984,4.061-5.849,6.019-8.822c1.402-2.128,1.457-4.598,1.287-7.017c-0.119-1.694-1.266-2.076-2.887-1.097
	c-2.538,1.533-5.056,3.096-7.578,4.656c-2.638,1.632-5.271,3.269-7.901,4.914c-0.672,0.42-1.144,0.333-1.652-0.331
	c-1.965-2.568-3.519-5.344-4.536-8.419c-0.553-1.672-0.316-3.284,0.613-4.698c2.489-3.785,5.065-7.513,7.625-11.251
	c0.514-0.751,1.125-1.437,1.664-2.172c0.864-1.177,0.514-2.25-0.478-3.087c-3.297-2.781-6.668-5.474-9.95-8.271
	c-1.376-1.172-2.329-0.389-3.217,0.526c-3.146,3.24-6.25,6.521-9.353,9.802c-3.607,3.814-7.038,7.812-10.838,11.422
	c-4.359,4.141-9.574,7.051-15.249,9.068c-2.138,0.76-4.326,1.381-6.497,2.049c-1.893,0.582-2.342,1.18-2.172,3.153
	c0.25,2.886,0.585,5.764,0.794,8.653c0.084,1.156-0.099,2.329-0.114,3.495c-0.026,1.988,0.699,2.784,2.699,2.634
	c1.949-0.146,3.909-0.409,5.812-0.846c5.494-1.262,10.946-2.71,16.45-3.928c1.988-0.44,4.074-0.448,6.118-0.625
	c1.724-0.149,2.901,0.655,3.765,2.119c0.798,1.352,1.763,2.606,2.551,3.963c0.203,0.351,0.204,1.061-0.022,1.383
	c-3.357,4.796-6.072,9.93-8.147,15.396c-1.38,3.634-2.577,7.339-4.002,10.955c-1.449,3.68-3.713,6.839-6.704,9.449
	c-1.151,1.004-2.365,0.922-3.78-0.537c-3.317-3.42-6.54-6.932-9.798-10.409c-1.55-1.654-3.05-3.36-4.661-4.952
	c-1.008-0.996-2.183-0.561-3.207,0.071c-3.851,2.377-7.673,4.801-11.517,7.189c-1.039,0.646-1.428,1.496-1.168,2.708
	c0.447,2.088,0.835,4.189,1.306,6.579c-1.547,0.084-2.851,0.089-4.14,0.237c-4.219,0.482-8.444,0.944-12.637,1.599
	c-0.713,0.111-1.499,1.033-1.863,1.772C18.103,117.877,18.847,118.493,19.706,118.942z M88.53,51.797
	c0.133,2.454-1.748,4.551-4.202,4.684c-2.454,0.133-4.551-1.748-4.684-4.202c-0.133-2.454,1.748-4.551,4.202-4.684
	C86.299,47.462,88.396,49.343,88.53,51.797z"/>
</svg>
