<?xml version="1.0" encoding="utf-8"?>
<!-- Generator: Adobe Illustrator 17.0.0, SVG Export Plug-In . SVG Version: 6.00 Build 0)  -->
<!DOCTYPE svg PUBLIC "-//W3C//DTD SVG 1.1//EN" "http://www.w3.org/Graphics/SVG/1.1/DTD/svg11.dtd">
<svg version="1.1" id="Layer_1" xmlns="http://www.w3.org/2000/svg" xmlns:xlink="http://www.w3.org/1999/xlink" x="0px" y="0px"
	 width="141.732px" height="141.732px" viewBox="0 0 141.732 141.732" enable-background="new 0 0 141.732 141.732"
	 xml:space="preserve">
<path fill-rule="evenodd" clip-rule="evenodd" d="M27.84,116.225v0.334c0,0.535,0.935,1.069,2.739,1.47
	c1.804,0.4,4.142,0.735,6.881,1.069c2.739,0.334,5.745,0.534,8.952,0.801c3.207,0.201,6.213,0.334,9.019,0.468
	c2.739,0.134,5.144,0.267,7.081,0.267c1.937,0.067,2.939,0.067,3.073,0.067c0.468,0,1.269-0.067,2.338-0.134
	c1.069-0.067,2.271-0.134,3.741-0.334c1.403-0.201,2.872-0.401,4.342-0.802c1.537-0.334,3.006-0.735,4.476-1.336
	c0.868-0.2,1.871-0.801,3.006-1.737c0.936-0.801,2.071-2.138,3.274-3.808c1.269-1.737,6.026-11.41,6.68-12.225
	c0.668-1.136,1.537-2.338,2.539-3.674c1.069-1.336,2.204-2.605,3.54-3.808c0.534,1.202,1.069,2.471,1.536,3.808
	c0.401,1.202,0.868,2.538,1.269,4.142c0.401,1.536,0.668,3.073,0.801,4.676l-0.267,14.337l1.603,0.535l1.67-0.535v-14.671
	c0-1.002,0.067-2.405,0.134-4.142c0.134-1.67,0.401-3.607,0.735-5.611c0.401-2.004,0.935-4.075,1.737-6.213
	c0.735-2.071,1.736-4.075,3.006-5.812c0.134-0.334,0.334-0.735,0.601-1.202c0.267-0.535,0.401-1.737,0.401-3.608
	c0-0.935-0.134-2.271-0.334-3.874c-0.267-1.603-0.802-3.541-1.603-5.745c-0.735-1.937-1.269-3.54-1.804-4.743
	c-0.468-1.269-0.801-2.204-1.069-2.939c-0.2-0.668-0.401-1.136-0.534-1.47c-0.067-0.334-0.134-0.601-0.134-0.802
	c-0.067,0-0.134-0.4-0.334-1.269c-0.134-0.868-0.2-1.537-0.2-1.938c0-0.133,0.067-0.868,0.2-2.271
	c0.067-1.336,0.267-3.14,0.468-5.211c0.2-2.137,0.401-4.475,0.668-7.014c0.2-2.605,0.468-5.211,0.735-7.816
	c0.2-2.672,0.468-5.144,0.735-7.548c0.267-2.338,0.535-4.409,0.735-6.079v-0.2c0-0.201-0.134-0.401-0.334-0.668
	c-0.267-0.334-0.936-0.468-2.071-0.468c-1.403,0-3.073,0.468-4.876,1.403c-1.871,0.935-3.608,1.937-5.344,3.073
	c-1.737,1.135-3.34,2.137-4.81,3.073c-1.47,0.935-2.605,1.403-3.474,1.403c-0.668,0-1.403-0.134-2.137-0.468
	c-0.668-0.267-1.269-0.535-1.804-0.935c-0.2-0.134-0.668-0.401-1.403-0.802c-0.668-0.401-1.537-0.801-2.472-1.269
	c-0.935-0.4-1.804-0.735-2.739-1.069c-0.868-0.267-1.603-0.468-2.137-0.468c-1.069,0-1.871,0.334-2.539,1.002
	c-0.668,0.668-1.069,1.269-1.336,1.937l-1.336,0.067l-0.401-0.802c-0.267-0.535-0.535-0.868-0.802-0.935
	c-0.601,0-0.868,0.334-0.868,1.002c0,0.134,0.067,0.868,0.134,2.071c0.067,1.269,0.134,2.605,0.334,4.075l0.401,5.812l-0.134,0.067
	c-0.134,0.133-0.2,0.267-0.2,0.401v7.682c0.134,0,0.267,0,0.334,0.067c0.067,0,0.134,0.267,0.134,0.802
	c0.067,0.534,0.067,1.336,0.067,2.405c0,1.069,0,2.605,0,4.676c-0.4,0-0.601,0.134-0.601,0.468c0,0.601,0,1.336,0,2.204
	c0,0.868,0,1.67,0,2.539c0.067,0.801,0.134,1.536,0.201,2.204c0.067,0.668,0.2,1.002,0.4,1.069c0,1.937,0,3.607-0.067,5.077
	c0,1.403-0.067,2.271-0.067,2.605v0.334c-0.468,0-0.802,0.267-1.002,0.801c-0.201,0.535-0.334,1.202-0.401,2.004
	c-0.067,0.801-0.134,1.67-0.201,2.538c-0.133,0.936-0.267,1.737-0.534,2.405c0.067,0,0.134,0.067,0.2,0.133
	c0.067,0.067,0.201,0.134,0.535,0.267c-0.334,1.136-0.601,2.271-0.936,3.474c-0.334,1.202-0.801,2.472-1.336,3.674
	c-0.2-0.067-0.334-0.067-0.534-0.067c-0.535,1.135-1.069,2.204-1.537,3.206c-0.468,0.802-0.869,1.603-1.269,2.405
	c-0.401,0.801-0.735,1.269-0.936,1.403l0.134,0.134l0.267,0.267c-0.868,1.47-1.871,2.806-2.873,4.008
	c-1.069,1.202-2.271,2.405-3.808,3.54c-1.47,1.202-3.34,2.338-5.545,3.541c-2.271,1.202-5.01,2.405-8.35,3.741
	c-1.67,0.601-3.273,1.269-4.876,1.938c-1.67,0.735-3.14,1.403-4.475,2.137c-1.336,0.735-2.472,1.47-3.407,2.338
	c-0.935,0.802-1.536,1.67-1.736,2.605L27.84,116.225z"/>
<path display="none" fill-rule="evenodd" clip-rule="evenodd" fill="#FFFFFF" stroke="#000000" stroke-width="0.75" stroke-miterlimit="10" d="
	M27.84,116.225v0.334c0,0.535,0.935,1.069,2.739,1.47c1.804,0.4,4.142,0.735,6.881,1.069c2.739,0.334,5.745,0.534,8.952,0.801
	c3.207,0.201,6.213,0.334,9.019,0.468c2.739,0.134,5.144,0.267,7.081,0.267c1.937,0.067,2.939,0.067,3.073,0.067
	c0.468,0,1.269-0.067,2.338-0.134c1.069-0.067,2.271-0.134,3.741-0.334c1.403-0.201,2.872-0.401,4.342-0.802
	c1.537-0.334,3.006-0.735,4.476-1.336c0.868-0.2,1.871-0.801,3.006-1.737c0.936-0.801,2.071-2.138,3.274-3.808
	c1.269-1.737,6.026-11.41,6.68-12.225c0.668-1.136,1.537-2.338,2.539-3.674c1.069-1.336,2.204-2.605,3.54-3.808
	c0.534,1.202,1.069,2.471,1.536,3.808c0.401,1.202,0.868,2.538,1.269,4.142c0.401,1.536,0.668,3.073,0.801,4.676l-0.267,14.337
	l1.603,0.535l1.67-0.535v-14.671c0-1.002,0.067-2.405,0.134-4.142c0.134-1.67,0.401-3.607,0.735-5.611
	c0.401-2.004,0.935-4.075,1.737-6.213c0.735-2.071,1.736-4.075,3.006-5.812c0.134-0.334,0.334-0.735,0.601-1.202
	c0.267-0.535,0.401-1.737,0.401-3.608c0-0.935-0.134-2.271-0.334-3.874c-0.267-1.603-0.802-3.541-1.603-5.745
	c-0.735-1.937-1.269-3.54-1.804-4.743c-0.468-1.269-0.801-2.204-1.069-2.939c-0.2-0.668-0.401-1.136-0.534-1.47
	c-0.067-0.334-0.134-0.601-0.134-0.802c-0.067,0-0.134-0.4-0.334-1.269c-0.134-0.868-0.2-1.537-0.2-1.938
	c0-0.133,0.067-0.868,0.2-2.271c0.067-1.336,0.267-3.14,0.468-5.211c0.2-2.137,0.401-4.475,0.668-7.014
	c0.2-2.605,0.468-5.211,0.735-7.816c0.2-2.672,0.468-5.144,0.735-7.548c0.267-2.338,0.535-4.409,0.735-6.079v-0.2
	c0-0.201-0.134-0.401-0.334-0.668c-0.267-0.334-0.936-0.468-2.071-0.468c-1.403,0-3.073,0.468-4.876,1.403
	c-1.871,0.935-3.608,1.937-5.344,3.073c-1.737,1.135-3.34,2.137-4.81,3.073c-1.47,0.935-2.605,1.403-3.474,1.403
	c-0.668,0-1.403-0.134-2.137-0.468c-0.668-0.267-1.269-0.535-1.804-0.935c-0.2-0.134-0.668-0.401-1.403-0.802
	c-0.668-0.401-1.537-0.801-2.472-1.269c-0.935-0.4-1.804-0.735-2.739-1.069c-0.868-0.267-1.603-0.468-2.137-0.468
	c-1.069,0-1.871,0.334-2.539,1.002c-0.668,0.668-1.069,1.269-1.336,1.937l-1.336,0.067l-0.401-0.802
	c-0.267-0.535-0.535-0.868-0.802-0.935c-0.601,0-0.868,0.334-0.868,1.002c0,0.134,0.067,0.868,0.134,2.071
	c0.067,1.269,0.134,2.605,0.334,4.075l0.401,5.812l-0.134,0.067c-0.134,0.133-0.2,0.267-0.2,0.401v7.682
	c0.134,0,0.267,0,0.334,0.067c0.067,0,0.134,0.267,0.134,0.802c0.067,0.534,0.067,1.336,0.067,2.405c0,1.069,0,2.605,0,4.676
	c-0.4,0-0.601,0.134-0.601,0.468c0,0.601,0,1.336,0,2.204c0,0.868,0,1.67,0,2.539c0.067,0.801,0.134,1.536,0.201,2.204
	c0.067,0.668,0.2,1.002,0.4,1.069c0,1.937,0,3.607-0.067,5.077c0,1.403-0.067,2.271-0.067,2.605v0.334
	c-0.468,0-0.802,0.267-1.002,0.801c-0.201,0.535-0.334,1.202-0.401,2.004c-0.067,0.801-0.134,1.67-0.201,2.538
	c-0.133,0.936-0.267,1.737-0.534,2.405c0.067,0,0.134,0.067,0.2,0.133c0.067,0.067,0.201,0.134,0.535,0.267
	c-0.334,1.136-0.601,2.271-0.936,3.474c-0.334,1.202-0.801,2.472-1.336,3.674c-0.2-0.067-0.334-0.067-0.534-0.067
	c-0.535,1.135-1.069,2.204-1.537,3.206c-0.468,0.802-0.869,1.603-1.269,2.405c-0.401,0.801-0.735,1.269-0.936,1.403l0.134,0.134
	l0.267,0.267c-0.868,1.47-1.871,2.806-2.873,4.008c-1.069,1.202-2.271,2.405-3.808,3.54c-1.47,1.202-3.34,2.338-5.545,3.541
	c-2.271,1.202-5.01,2.405-8.35,3.741c-1.67,0.601-3.273,1.269-4.876,1.938c-1.67,0.735-3.14,1.403-4.475,2.137
	c-1.336,0.735-2.472,1.47-3.407,2.338c-0.935,0.802-1.536,1.67-1.736,2.605L27.84,116.225z"/>
</svg>
