<?xml version="1.0" encoding="utf-8"?>
<!-- Generator: Adobe Illustrator 17.0.0, SVG Export Plug-In . SVG Version: 6.00 Build 0)  -->
<!DOCTYPE svg PUBLIC "-//W3C//DTD SVG 1.1//EN" "http://www.w3.org/Graphics/SVG/1.1/DTD/svg11.dtd">
<svg version="1.1" id="Layer_1" xmlns="http://www.w3.org/2000/svg" xmlns:xlink="http://www.w3.org/1999/xlink" x="0px" y="0px"
	 width="141.732px" height="141.732px" viewBox="0 0 141.732 141.732" enable-background="new 0 0 141.732 141.732"
	 xml:space="preserve">
<g>
	<g>
		<path fill="#FFFFFF" stroke="#DF1F26" stroke-width="2.5" stroke-miterlimit="10" d="M65.313,102.173c5.874,0,11.352,0,17.27,0
			c0.135-2.276,0.264-4.439,0.404-6.78c0.731-0.148,1.344-0.349,1.967-0.384c14.519-0.823,19.553-5.66,20.961-20.078
			c0.26-2.662,0.709-5.306,1.218-9.045c2.504,11.323,4.356,21.604,7.108,31.636c3.121,11.378-5.937,22.02-15.877,23.409
			c-1.036,0.145-2.097,0.154-3.147,0.155c-14.201,0.008-28.403,0.044-42.604-0.009c-10.383-0.039-18.484-7.008-19.684-17.267
			c-0.306-2.617,0.592-5.416,1.15-8.087c2-9.58,4.091-19.141,6.601-28.786c0.557,3.79,1.118,7.578,1.672,11.368
			c1.631,11.155,7.531,16.411,18.714,16.657c1.169,0.026,2.34,0.003,3.655,0.003C64.92,97.412,65.099,99.576,65.313,102.173z"/>
		<path fill="#FFFFFF" stroke="#DF1F26" stroke-width="2.5" stroke-miterlimit="10" d="M105.061,61.068
			c-1.007,7.118-1.542,13.935-3.02,20.54c-1.728,7.725-7.842,11.016-17.691,10.27c-0.267-1.116-0.553-2.313-0.897-3.753
			c-6.296,0-12.545,0-19.037,0c-0.279,1.222-0.555,2.431-0.813,3.564c-11.141,1.492-17.266-3.223-18.567-13.961
			c-0.659-5.438-1.561-10.848-2.409-16.66C63.51,61.068,84.001,61.068,105.061,61.068z"/>
		<path fill="#FFFFFF" stroke="#DF1F26" stroke-width="2.5" stroke-miterlimit="10" d="M45.755,56.756
			c-0.677-0.048-1.786-0.124-2.852-0.198c-1.311-16.905,10.679-29.88,28.002-30.618c19.529-0.832,33.673,11.615,34.148,30.204
			c-3.036,1.813-4.034,0.194-4.512-2.624c-1.501-8.872-5.516-16.071-13.797-20.359c-12.593-6.52-30.097-2.646-35.984,8.47
			C48.418,46.049,47.526,51.233,45.755,56.756z"/>
		<path fill="#FFFFFF" stroke="#DF1F26" stroke-width="2.5" stroke-miterlimit="10" d="M68.124,98.749c0-2.382,0-4.664,0-7.205
			c3.818,0,7.526,0,11.539,0c0,2.321,0,4.598,0,7.205C75.936,98.749,72.136,98.749,68.124,98.749z"/>
	</g>
</g>
</svg>
