<?xml version="1.0" encoding="utf-8"?>
<!-- Generator: Adobe Illustrator 17.0.0, SVG Export Plug-In . SVG Version: 6.00 Build 0)  -->
<!DOCTYPE svg PUBLIC "-//W3C//DTD SVG 1.1//EN" "http://www.w3.org/Graphics/SVG/1.1/DTD/svg11.dtd">
<svg version="1.1" id="Layer_1" xmlns="http://www.w3.org/2000/svg" xmlns:xlink="http://www.w3.org/1999/xlink" x="0px" y="0px"
	 width="141.732px" height="141.732px" viewBox="0 0 141.732 141.732" enable-background="new 0 0 141.732 141.732"
	 xml:space="preserve">
<g>
	<g>
		<path fill="#FFFFFF" stroke="#DF1F26" stroke-width="2.5" stroke-miterlimit="10" d="M73.869,118.736
			c-9.882,0-19.764,0.012-29.648-0.004c-5.499-0.009-9.669-3.177-10.987-8.408c-0.285-1.129-0.308-2.343-0.31-3.518
			c-0.022-12.16,0.101-24.32-0.057-36.478c-0.09-6.891,5.144-11.971,11.729-11.71c2.547,0.101,5.101-0.027,7.65,0.04
			c0.891,0.024,1.286-0.297,1.554-1.104c0.487-1.466,1.057-2.903,1.62-4.342c1.341-3.426,4.349-5.502,8.005-5.507
			c6.968-0.01,13.936-0.011,20.904,0c3.643,0.005,6.662,2.098,7.992,5.525c0.575,1.482,1.146,2.967,1.652,4.474
			c0.243,0.721,0.619,0.96,1.383,0.948c2.777-0.048,5.557-0.044,8.333-0.013c6.206,0.07,10.95,4.29,11.038,10.46
			c0.187,13.067,0.185,26.14-0.007,39.207c-0.09,6.139-4.882,10.402-11.068,10.422C93.726,118.759,83.797,118.735,73.869,118.736z
			 M73.887,69.545c-10.605-0.006-19.184,8.551-19.183,19.133c0.001,10.584,8.588,19.147,19.197,19.144
			c10.509-0.003,19.046-8.482,19.112-19.094C93.084,77.646,83.708,69.319,73.887,69.545z"/>
		<path fill="#FFFFFF" stroke="#DF1F26" stroke-width="2.5" stroke-miterlimit="10" d="M86.129,88.669
			c0,6.811-5.491,12.31-12.285,12.303c-6.791-0.007-12.236-5.501-12.239-12.347c-0.002-6.752,5.45-12.21,12.214-12.228
			C80.651,76.378,86.129,81.84,86.129,88.669z"/>
	</g>
</g>
</svg>
