<?xml version="1.0" encoding="utf-8"?>
<!-- Generator: Adobe Illustrator 17.0.0, SVG Export Plug-In . SVG Version: 6.00 Build 0)  -->
<!DOCTYPE svg PUBLIC "-//W3C//DTD SVG 1.1//EN" "http://www.w3.org/Graphics/SVG/1.1/DTD/svg11.dtd">
<svg version="1.1" id="Layer_1" xmlns="http://www.w3.org/2000/svg" xmlns:xlink="http://www.w3.org/1999/xlink" x="0px" y="0px"
	 width="141.732px" height="141.732px" viewBox="0 0 141.732 141.732" enable-background="new 0 0 141.732 141.732"
	 xml:space="preserve">
<g>
	<path fill="#FFFFFF" stroke="#DF1F26" stroke-width="2.5" stroke-miterlimit="10" d="M102.077,42.505
		c12.685-0.241,25.213,9.809,21.818,25.129c-0.687,3.101-1.152,6.3-2.258,9.252c-5.235,13.971-10.416,27.972-16.1,41.762
		c-3.661,8.883-11.778,12.247-20.76,9.512c-7.729-2.354-11.855-8.722-10.96-16.786c0.556-5.004,2.131-9.718,3.972-14.349
		c2.074-5.219,3.083-10.567,2.911-16.209c-0.224-7.338-0.077-14.671,1.436-21.915C84.262,48.72,91.728,42.543,102.077,42.505z"/>
	<path fill="#FFFFFF" stroke="#DF1F26" stroke-width="2.5" stroke-miterlimit="10" d="M60.701,58.7
		c-0.698,6.256,0.911,14.018,4.077,21.557c1.446,3.443,2.266,7.095,2.856,10.803c1.223,7.679-2.278,14.028-9.471,16.928
		c-7.69,3.1-16.274,0.81-20.381-5.446c-0.379-0.578-0.816-1.15-1.045-1.789C30.593,83.604,21.9,67.367,17.901,49.462
		c-3.842-17.201,10.521-30.644,27.44-25.831c7.181,2.043,11.938,6.74,13.726,14.163C60.57,44.035,60.864,50.383,60.701,58.7z"/>
	<path fill="#FFFFFF" stroke="#DF1F26" stroke-width="2.5" stroke-miterlimit="10" d="M83.088,88.179
		c0.356-7.684,1.94-15.077,5.525-21.937c2.475-4.736,5.909-8.428,11.595-9.027c1.748-0.184,2.335-1.159,2.69-2.593
		c0.232-0.939,0.503-1.868,0.754-2.802c0.446-1.657,1.355-2.877,3.23-2.355c1.772,0.493,2.488,2.047,1.728,3.604
		c-1.78,3.647-0.598,5.864,2.517,8.172c2.881,2.135,3.837,5.786,4.116,9.259c0.877,10.918-1.134,21.214-7.354,30.446
		c-0.615,0.913-1.368,1.743-2.126,2.547c-1.14,1.208-2.459,1.972-3.964,0.634c-1.447-1.287-1.129-2.713,0.046-4.001
		c5.936-6.506,7.542-14.596,8.432-22.948c0.266-2.497,0.054-4.966-0.464-7.43c-0.737-3.504-2.376-6.236-6.07-7.128
		c-4.007-0.968-7.23,0.526-9.221,3.96c-5.383,9.284-7.772,19.161-5.06,29.849c0.505,1.99,1.722,4.335-1.28,5.119
		c-2.598,0.679-3.08-1.696-3.668-3.544C83.498,94.813,83.035,91.539,83.088,88.179z"/>
	<path fill="#FFFFFF" stroke="#DF1F26" stroke-width="2.5" stroke-miterlimit="10" d="M58.299,69.385
		c0.076,2.935-0.351,6.475-1.593,9.912c-0.62,1.716-1.439,3.164-3.531,2.569c-2.203-0.627-1.983-2.405-1.436-4.076
		c3.025-9.243,0.993-18.028-2.44-26.658c-0.655-1.648-1.607-3.23-2.677-4.65c-2.139-2.838-4.931-4.483-8.634-3.581
		c-3.656,0.89-5.767,3.542-6.213,7.028c-1.342,10.491,0.366,20.385,6.71,29.155c0.404,0.558,0.903,1.048,1.344,1.58
		c1.013,1.221,1.265,2.513,0.022,3.686c-1.209,1.141-2.432,0.848-3.707-0.108c-8.735-6.553-13.259-31.958-7.267-41.002
		c0.229-0.345,0.418-0.77,0.74-0.992c3.438-2.379,5.418-5.125,3.184-9.507c-0.596-1.17,0.31-2.434,1.696-2.864
		c1.63-0.506,2.68,0.293,3.212,1.774c0.465,1.297,0.873,2.627,1.15,3.974c0.264,1.288,0.905,1.846,2.229,1.939
		c5.971,0.417,9.31,4.381,11.923,9.151C56.146,52.434,58.287,61.64,58.299,69.385z"/>
</g>
</svg>
