<?xml version="1.0" encoding="utf-8"?>
<!-- Generator: Adobe Illustrator 17.0.0, SVG Export Plug-In . SVG Version: 6.00 Build 0)  -->
<!DOCTYPE svg PUBLIC "-//W3C//DTD SVG 1.1//EN" "http://www.w3.org/Graphics/SVG/1.1/DTD/svg11.dtd">
<svg version="1.1" id="Layer_1" xmlns="http://www.w3.org/2000/svg" xmlns:xlink="http://www.w3.org/1999/xlink" x="0px" y="0px"
	 width="141.732px" height="141.732px" viewBox="0 0 141.732 141.732" enable-background="new 0 0 141.732 141.732"
	 xml:space="preserve">
<path fill="#FFFFFF" stroke="#000000" stroke-width="2.5" stroke-miterlimit="10" d="M16.008,117.077
	c0.059,0.359,0.119,0.719,0.178,1.078c1.038,1.154,2.437,1.546,3.886,1.754c4.436,0.638,8.89,0.392,13.337,0.169
	c13.519-0.678,26.804-3.121,40.127-5.301c4.986-0.816,8.426-3.53,10.857-7.802c2.536-4.457,4.165-9.271,5.687-14.133
	c1.582-5.054,2.993-10.172,4.823-15.134c1.453-3.94,3.732-7.496,7.021-10.236c3.01-2.508,6.43-3.82,10.438-3.17
	c0.726,0.118,1.186,0.466,1.412,1.101c0.506,1.424,1.163,2.834,1.401,4.308c1.039,6.436,1.966,12.89,2.901,19.342
	c0.653,4.503,1.249,9.015,1.883,13.521c0.054,0.387,0.199,0.761,0.309,1.139c0.307,1.056,0.969,1.369,1.992,0.947
	c1.043-0.431,1.623-1.483,1.426-2.602c-0.574-3.256-1.261-6.496-1.706-9.77c-1.059-7.784-2.108-15.571-2.96-23.379
	c-0.629-5.764-0.598-11.543,0.467-17.294c0.305-1.648,0.144-3.382,0.198-5.076c0.01-0.299,0.026-0.598,0.039-0.898
	c-0.248-1.497-0.496-2.994-0.743-4.491c-0.52-1.385-1.007-2.783-1.565-4.152c-1.398-3.431-3.448-6.461-5.924-9.189
	c-1.767-1.947-3.579-3.871-5.532-5.625c-1.18-1.06-2.655-1.19-3.291,0.652c-0.142,0.412-0.429,0.805-0.736,1.123
	c-2.888,2.996-5.012,6.518-7.063,10.1c-3.147,5.496-6.352,10.957-9.495,16.455c-1.985,3.471-3.929,6.965-5.843,10.476
	c-1.666,3.056-3.315,6.124-4.876,9.234c-1.547,3.083-2.953,6.237-4.461,9.341c-1.685,3.466-3.584,6.801-5.917,9.89
	c-2.032,2.691-4.704,4.438-7.804,5.553c-3.305,1.189-6.659,2.244-9.992,3.357c-0.086,0.029-0.18,0.041-0.261,0.08
	c-4.651,2.245-9.34,4.416-13.937,6.767c-3.068,1.57-6.038,3.343-8.989,5.129c-2.251,1.362-4.425,2.869-6.129,4.921
	C16.711,115.811,16.39,116.47,16.008,117.077z M46.751,101.897c0.408-0.21,0.577-0.331,0.764-0.387
	c3.189-0.96,6.388-1.886,9.568-2.873c3.104-0.964,6.114-2.215,8.057-4.959c1.936-2.735,3.756-5.575,5.368-8.511
	c2.636-4.801,5.008-9.746,7.591-14.576c2.955-5.524,5.991-11.006,9.046-16.477c3.057-5.475,6.178-10.914,9.274-16.367
	c0.619-1.089,1.253-2.17,1.881-3.254c0.063,0.033,0.127,0.067,0.19,0.1c-0.683,1.5-1.393,2.989-2.043,4.503
	c-3.036,7.064-6.037,14.143-9.086,21.202c-2.557,5.921-5.146,11.828-7.751,17.729c-3.155,7.147-6.367,14.268-10.21,21.082
	c-2.411,4.274-6.016,6.518-10.99,6.418c-2.897-0.058-5.601-0.906-8.234-2.02C49.079,103.042,48.016,102.495,46.751,101.897z"/>
</svg>
