<?xml version="1.0" encoding="utf-8"?>
<!-- Generator: Adobe Illustrator 17.0.0, SVG Export Plug-In . SVG Version: 6.00 Build 0)  -->
<!DOCTYPE svg PUBLIC "-//W3C//DTD SVG 1.1//EN" "http://www.w3.org/Graphics/SVG/1.1/DTD/svg11.dtd">
<svg version="1.1" id="Layer_1" xmlns="http://www.w3.org/2000/svg" xmlns:xlink="http://www.w3.org/1999/xlink" x="0px" y="0px"
	 width="141.732px" height="141.732px" viewBox="0 0 141.732 141.732" enable-background="new 0 0 141.732 141.732"
	 xml:space="preserve">
<g>
	<path fill="#FFFFFF" stroke="#DF1F26" stroke-width="2.5" stroke-miterlimit="10" d="M59.285,122.21
		c-4.37-5.091-5.43-13.122-14.392-14.534c-3.046-0.48-5.836-2.609-9.684-1.988c-9.054,1.459-11.895-1.232-11.95-10.199
		c-0.009-1.43,0.233-2.899-0.012-4.284c-0.876-4.923,1.823-7.254,5.986-8.553c6.116-1.909,12.39-3.397,18.339-5.724
		c6.82-2.667,13.322-5.952,16.739-13.247c6.142-13.115,18.24-14.915,27.773-4.064c8.668,9.868,11.703,21.718,9.548,34.438
		c-2.747,16.202-15.274,21.917-27.899,11.86c-4.573-3.646-10.522-4.446-17.254-3.958c4.503,7.984,8.598,15.242,12.881,22.838
		C62.844,127.159,63.241,126.819,59.285,122.21z M79.008,88.745c-2.668,1-6.703,2.514-11.161,4.186
		c2.759,6.849,6.726,11.918,12.887,14.947c5.953,2.926,12.024,0.896,15.77-4.887c8.409-12.979,2.766-38.018-10.404-46.168
		C79,52.43,71.675,53.906,67.948,61.376c-2.298,4.603-3.068,9.972-4.888,16.253c5.601-0.786,9.543-1.337,12.347-1.728
		C76.684,80.463,77.792,84.413,79.008,88.745z"/>
	<path fill="#FFFFFF" stroke="#DF1F26" stroke-width="2.5" stroke-miterlimit="10" d="M75.404,75.901
		c1.28,4.561,2.388,8.511,3.603,12.842c-2.668,1-6.703,2.514-11.161,4.186c2.759,6.849,6.726,11.918,12.887,14.947
		c5.953,2.926,12.024,0.896,15.77-4.887c8.409-12.979,2.766-38.018-10.404-46.168C79,52.429,71.675,53.905,67.948,61.375
		c-2.298,4.603-3.068,9.972-4.888,16.253C68.66,76.847,72.602,76.296,75.404,75.901z"/>
	<g>
		<g>
			<path id="SVGID_7_" fill="#FFFFFF" d="M64.34,87.419c4.874,15.085,17.425,24.96,26.589,20.693
				c8.571-3.99,12.34-17.492,7.464-32.576c-4.873-15.085-16.35-24.23-24.847-20.084C66.22,59.028,59.465,72.335,64.34,87.419z"/>
		</g>
		<g>
			<g>
				<g>
					<defs>
						<path id="SVGID_2_" d="M64.34,87.419c4.874,15.085,17.425,24.96,26.589,20.693c8.571-3.99,12.34-17.492,7.464-32.576
							c-4.873-15.085-16.35-24.23-24.847-20.084C66.22,59.028,59.465,72.335,64.34,87.419z"/>
					</defs>
					<clipPath id="SVGID_3_">
						<use xlink:href="#SVGID_2_"  overflow="visible"/>
					</clipPath>
					<polygon clip-path="url(#SVGID_3_)" fill="#FFFFFF" stroke="#DF1F26" stroke-width="2.5" stroke-miterlimit="10" points="
						76.732,75.759 58.448,79.1 61.717,96.11 78.673,89.071 					"/>
				</g>
			</g>
		</g>
		<g>
			<path id="SVGID_1_" fill="none" stroke="#DF1F26" stroke-width="2.5" stroke-miterlimit="10" d="M64.34,87.419
				c4.874,15.085,17.425,24.96,26.589,20.693c8.571-3.99,12.34-17.492,7.464-32.576c-4.873-15.085-16.35-24.23-24.847-20.084
				C66.22,59.028,59.465,72.335,64.34,87.419z"/>
		</g>
	</g>
	
		<ellipse transform="matrix(-0.0386 -0.9993 0.9993 -0.0386 -2.3294 162.8874)" fill="#FFFFFF" stroke="#DF1F26" stroke-width="2.5" stroke-miterlimit="10" cx="77.194" cy="82.564" rx="6.809" ry="4.569"/>
	
		<ellipse transform="matrix(-0.0386 -0.9993 0.9993 -0.0386 -2.0335 162.5544)" fill="#FFFFFF" stroke="#DF1F26" stroke-width="2.5" stroke-miterlimit="10" cx="77.182" cy="82.255" rx="5.166" ry="3.632"/>
	<g>
		<polygon fill="#FFFFFF" stroke="#DF1F26" stroke-width="2.5" stroke-miterlimit="10" points="113.593,29.359 93.361,52.097 
			95.331,54.424 113.593,36.163 		"/>
		<polygon fill="#FFFFFF" stroke="#DF1F26" stroke-width="2.5" stroke-miterlimit="10" points="123.082,105.627 103.477,102.047 
			103.477,103.837 123.082,111.178 		"/>
		<polygon fill="#FFFFFF" stroke="#DF1F26" stroke-width="2.5" stroke-miterlimit="10" points="112.685,45.921 102.3,54.156 
			103.477,55.32 114.667,47.084 		"/>
	</g>
</g>
</svg>
