<?xml version="1.0" encoding="utf-8"?>
<!-- Generator: Adobe Illustrator 17.0.0, SVG Export Plug-In . SVG Version: 6.00 Build 0)  -->
<!DOCTYPE svg PUBLIC "-//W3C//DTD SVG 1.1//EN" "http://www.w3.org/Graphics/SVG/1.1/DTD/svg11.dtd">
<svg version="1.1" id="Layer_1" xmlns="http://www.w3.org/2000/svg" xmlns:xlink="http://www.w3.org/1999/xlink" x="0px" y="0px"
	 width="141.732px" height="141.732px" viewBox="0 0 141.732 141.732" enable-background="new 0 0 141.732 141.732"
	 xml:space="preserve">
<g>
	
		<ellipse fill="#FFFFFF" stroke="#000000" stroke-width="2.5" stroke-miterlimit="10" cx="88.079" cy="81.294" rx="1.547" ry="1.709"/>
	
		<ellipse fill="#FFFFFF" stroke="#000000" stroke-width="2.5" stroke-miterlimit="10" cx="81.047" cy="81.294" rx="1.547" ry="1.709"/>
	
		<ellipse fill="#FFFFFF" stroke="#000000" stroke-width="2.5" stroke-miterlimit="10" cx="95.209" cy="81.294" rx="1.547" ry="1.709"/>
	
		<ellipse fill="#FFFFFF" stroke="#000000" stroke-width="2.5" stroke-miterlimit="10" cx="102.458" cy="81.294" rx="1.547" ry="1.709"/>
	<path fill="#FFFFFF" stroke="#000000" stroke-width="2.5" stroke-miterlimit="10" d="M43.612,72.298c0,0,0.048-0.05,0.134-0.125
		c-2.035,0.002-4.015,0.006-5.911,0.008c0,0-14.04,7.424,0.118,18.771c-0.011,0-0.021,0-0.032,0l5.662,0.006
		c-0.001-0.001-0.005-0.002-0.006-0.006C43.413,90.057,43.612,72.298,43.612,72.298z"/>
	<path fill="#FFFFFF" stroke="#000000" stroke-width="2.5" stroke-miterlimit="10" d="M35.808,72.186c0.173,0,0.33,0,0.482-0.001
		C36.128,72.185,35.967,72.186,35.808,72.186z"/>
	<path fill="#FFFFFF" stroke="#000000" stroke-width="2.5" stroke-miterlimit="10" d="M31.625,72.192
		C20.93,72.209,13.827,72.22,13.827,72.22s-7.162-0.377-7.162,3.744c0,5.29,0,11.23,0,11.23s0.254,3.632,6.346,3.744
		c7.243,0,7.243,0,7.243,0l13.846,0.013c-1.668-0.005-1.64-0.011-1.64-0.011S21.67,81.542,31.625,72.192z"/>
	<path fill="#FFFFFF" stroke="#000000" stroke-width="2.5" stroke-miterlimit="10" d="M31.861,72.192
		c0.963-0.001,1.855-0.002,2.653-0.005C33.607,72.188,32.724,72.19,31.861,72.192z"/>
	<path fill="#FFFFFF" stroke="#000000" stroke-width="2.5" stroke-miterlimit="10" d="M61.081,83.086
		c1.464,0.007,10.694,0.048,11.818,0.048c1.068,0,2.069-0.671,2.052-2.055c0-2.28-2.123-2.308-2.123-2.308
		s-9.281-0.078-11.595-0.005c-0.207,1.06-0.181,1.982-0.206,2.527C60.993,81.937,61.019,82.526,61.081,83.086z"/>
	<path fill="#FFFFFF" stroke="#000000" stroke-width="2.5" stroke-miterlimit="10" d="M136.633,76.939c0,0,0.197-4.331-6.18-4.887
		c-3.895,0-32.89,0.041-60.991,0.084c-6.101,1.188-7.767,4.259-8.23,6.634c2.314-0.074,11.595,0.005,11.595,0.005
		s2.123,0.03,2.123,2.308c0.018,1.383-0.982,2.055-2.052,2.055c-1.123,0-10.354-0.041-11.818-0.048
		c0.795,7.392,9.224,7.776,9.224,7.776s15.788,0.015,17.74,0.08c0.001,0.021,0.001,0.037,0.002,0.057l41.907,0.04
		c0,0,6.389,0.332,6.674-5.556C136.71,83.367,136.633,76.939,136.633,76.939z M81.047,83.003c-0.853,0-1.547-0.766-1.547-1.709
		s0.693-1.709,1.547-1.709c0.854,0,1.547,0.766,1.547,1.709C82.592,82.237,81.901,83.003,81.047,83.003z M88.079,83.003
		c-0.853,0-1.547-0.766-1.547-1.709s0.693-1.709,1.547-1.709c0.854,0,1.547,0.766,1.547,1.709
		C89.624,82.237,88.932,83.003,88.079,83.003z M95.21,83.003c-0.854,0-1.547-0.766-1.547-1.709s0.693-1.709,1.547-1.709
		c0.853,0,1.547,0.766,1.547,1.709C96.756,82.237,96.065,83.003,95.21,83.003z M102.458,83.003c-0.853,0-1.547-0.766-1.547-1.709
		s0.693-1.709,1.547-1.709c0.854,0,1.547,0.766,1.547,1.709C104.005,82.237,103.312,83.003,102.458,83.003z"/>
	<path fill="#FFFFFF" stroke="#000000" stroke-width="2.5" stroke-miterlimit="10" d="M55.738,78.772
		c0.161-2.856,1.203-5.003,2.678-6.621c-3.228,0.005-6.394,0.009-9.46,0.014c0.064,0.045,0.125,0.079,0.19,0.128
		c-0.082,4.18-0.037,18.66-0.037,18.66s-0.008,0.008-0.011,0.011l9.93,0.009C55.017,86.569,55.738,80.254,55.738,78.772z"/>
	<path fill="#FFFFFF" stroke="#000000" stroke-width="2.5" stroke-miterlimit="10" d="M43.612,72.298c0,0,2.28-2.448,5.534-0.006
		c-0.082,4.18-0.037,18.66-0.037,18.66s-2.803,2.817-5.534,0C43.413,90.057,43.612,72.298,43.612,72.298z"/>
	<path fill="#FFFFFF" stroke="#000000" stroke-width="2.5" stroke-miterlimit="10" d="M88.533,71.928v-2.923
		c0,0,0.082-1.383-3.581-1.627c-3.336,0-13.519-0.143-13.519-0.143s-15.046-0.019-15.696,11.536c0,2.28-1.709,15.95,14.647,16.602
		c3.255,0,14.73,0.325,14.73,0.325s3.419,0.253,2.93-4.754c-1.952-0.065-17.741-0.08-17.741-0.08s-9.765-0.435-9.278-9.568
		c0.082-1.792-0.427-7.62,8.819-9.243C75.299,72.216,88.533,71.928,88.533,71.928z"/>
</g>
</svg>
