<?xml version="1.0" encoding="utf-8"?>
<!-- Generator: Adobe Illustrator 17.0.0, SVG Export Plug-In . SVG Version: 6.00 Build 0)  -->
<!DOCTYPE svg PUBLIC "-//W3C//DTD SVG 1.1//EN" "http://www.w3.org/Graphics/SVG/1.1/DTD/svg11.dtd">
<svg version="1.1" id="Layer_1" xmlns="http://www.w3.org/2000/svg" xmlns:xlink="http://www.w3.org/1999/xlink" x="0px" y="0px"
	 width="141.732px" height="141.732px" viewBox="0 0 141.732 141.732" enable-background="new 0 0 141.732 141.732"
	 xml:space="preserve">
<path fill="#FFFFFF" stroke="#DF1F26" stroke-width="2.5" stroke-miterlimit="10" d="M107.002,97.577
	c8.092-2.569,16.183-5.138,24.275-7.707c-0.032-0.146-0.064-0.292-0.096-0.437c-0.959,0.225-1.92,0.442-2.878,0.675
	c-14.136,3.431-28.335,6.627-42.382,10.388c-8.151,2.182-16.029,5.366-24.083,7.934c-14.547,4.639-29.117,9.296-44.566,9.743
	c-2.914,0.084-5.967-0.271-8.755-1.098c-5.421-1.609-7.163-6.551-4.075-11.307c1.519-2.339,3.424-4.503,5.472-6.404
	c4.071-3.78,8.249-7.465,12.601-10.913c2.841-2.251,4.021-1.802,6.207,1.072c0.361,0.474,1.319,0.716,1.991,0.698
	c9.935-0.275,19.457-2.722,28.849-5.719c18.912-6.035,36.822-14.528,54.911-22.576c4.818-2.144,9.574-4.432,14.423-6.501
	c0.824-0.352,2.35-0.319,2.91,0.212c1.464,1.39,3.055,2.975,3.735,4.803c2.154,5.787,3.179,11.841,3.432,18.04
	c0.183,4.491-1.759,8.431-2.922,12.567c-0.19,0.675-1.333,1.343-2.15,1.542c-8.157,1.986-16.334,3.889-24.52,5.757
	c-0.728,0.166-1.55-0.085-2.329-0.143C107.035,97.993,107.019,97.785,107.002,97.577z M31.305,93.432
	c-0.027,0.092-0.054,0.185-0.081,0.277c2.521,0.395,5.058,1.201,7.56,1.102c5.61-0.221,11.225-0.709,16.796-1.419
	c10.261-1.308,20.011-4.647,29.511-8.529c12.605-5.152,24.291-12.052,35.255-20.146c2.639-1.948,5.234-3.955,7.849-5.936
	c-2.315,0.83-4.34,2.051-6.348,3.299c-15.613,9.707-31.708,18.435-49.237,24.245c-9.49,3.146-19.123,5.743-29.106,6.688
	C39.461,93.397,35.373,93.307,31.305,93.432z"/>
</svg>
